<?xml version='1.0' encoding='utf-8'?>
<svg xmlns="http://www.w3.org/2000/svg" viewBox="0 0 230.26 299.37"> <g transform="matrix(.96593 .25882 -.25882 .96593 453.25 602.66)"> <path transform="matrix(.93143 .24957 -.24957 .93143 954.31 18.905)" d="m-1371.8 45.24a112.13 112.13 0 1 1-224.25 0 112.13 112.13 0 1 1 224.25 0z" fill="#2e3436" stroke="#000" stroke-linecap="round" stroke-linejoin="round" stroke-width="2.0741"/> <path d="m-411.15-413.75c-19.1-5.1178-38.398-4.7887-56.209 0.04745l-0.07645 0.04422c-23.015 12.866-40.872 34.331-48.122 61.387-14.516 54.173 18.977 110.26 74.766 125.21 30.124 8.0716 60.618 2.5015 84.585-12.858 9.8115-11.706 17.301-25.688 21.512-41.406 15.447-57.65-18.806-116.98-76.456-132.43z" fill="#555753"/> <path transform="matrix(.93143 .24957 -.24957 .93143 954.31 18.905)" d="m-1371.8 45.24a112.13 112.13 0 1 1-224.25 0 112.13 112.13 0 1 1 224.25 0z" fill="none" stroke="#000" stroke-linecap="round" stroke-linejoin="round" stroke-width="2.0741"/> <g fill="#555753" stroke="#000" stroke-linecap="round" stroke-linejoin="round" stroke-width="2.3387"> <path transform="matrix(.96973 .25984 -.18853 .70362 641.96 179.07)" d="m-1129.3-438.31v49.421c0 12.026-16.48 21.786-36.786 21.786s-36.786-9.76-36.786-21.786v-49.421"/> <path transform="matrix(.96973 .25984 -.18853 .70362 647.14 159.75)" d="m-1129.3-410.85a36.786 21.786 0 1 1-73.571 0 36.786 21.786 0 1 1 73.571 0z"/> </g> <path transform="matrix(.49154 .13171 -.13171 .49154 335.3 -121.49)" d="m-1371.8 45.24a112.13 112.13 0 1 1-224.25 0 112.13 112.13 0 1 1 224.25 0z" fill="#888a85"/> <path transform="matrix(.12171 -.032612 .06409 .23919 -183.11 -365.44)" d="m-1371.8 45.24a112.13 112.13 0 1 1-224.25 0 112.13 112.13 0 1 1 224.25 0z" fill="#eeeeec"/> <g transform="matrix(1.3303 .35645 -.35645 1.3303 1875.6 241.65)"> <path transform="matrix(-.13705 -.046623 .05455 -.16035 -1613.4 -31.37)" d="m863.17-140.39a49.733 14.33 0 1 1-99.466 0 49.733 14.33 0 1 1 99.466 0z" fill-opacity=".53285" fill-rule="evenodd"/> <path d="m-1728.969-82.7711c-.8548-.30272-1.8066-.11682-2.4847.48531-.394.3424-1.1711.82101-2.0333,1.56906s-1.8762,1.96124-2.1311,3.61657l-.0126.07999-.0126.07999c-.3924,4.39279 1.4624,8.56441 4.3447,11.5545l.0082.00322 .0049.01139c2.3935,2.44162 4.1648,5.38205 4.1144,8.30184-.6111,2.79528-2.1401,5.6921-3.3236,9.09383-.454,1.29925.2313,2.72049 1.5306,3.17441s2.7204-.23135 3.1744-1.5306c1.0258-2.94843 2.7802-6.09763 3.5603-9.93513l.0381-.19268 .0103-.19416c.2277-5.02957-2.5884-9.1867-5.5504-12.20831-1.9692-2.04282-3.145-4.87967-2.9455-7.53038 .0268-.13305.0783-.23549.4584-.56529 .4257-.36932 1.1851-.83187 2.0333-1.56906 .6786-.57717.9971-1.47288.8353-2.34889s-.7792-1.59887-1.6191-1.89561z" fill="#fff" fill-rule="evenodd" stroke="#000" stroke-linecap="round" stroke-width="1.9918"/> <path d="m-1731.5721-81.6821c.1275.27178.2495.54587.3822.81556 .1129.22808.2429.44181.3833.65356 .121.15899.2264.33028.365.47516 .1265.15695.3017.25847.4787.3483 .1896.09101.3857.16731.5814.24397l.5153.20091 .1678.06581-.8616.22324-.1678-.06575-.5145-.20145c-.1965-.07842-.3933-.15737-.582-.2537-.1823-.09942-.356-.21493-.4885-.3778-.1333-.15371-.2448-.32429-.3635-.48918-.1426-.21404-.2683-.43406-.38-.66598-.1313-.26917-.2499-.54507-.3933-.80759l.8775-.16506z"/> <path d="m-1733.7445-79.08638c.2649.19474.5203.40145.7804.60239 .2853.2382.5928.44631.895.66167 .2335.17405.4916.308.7555.42874 .2125.09829.4267.18396.6556.23264 .0332.0022.0664.00675.0997.0066 .094-.00039.1122-.01129.2053-.02678l.1045-.01537c-.7932.11614-1.0157.15382-.659.09452 .3749-.08345.7531-.11761 1.1352-.17989l-.7943.11611 .1402-.02738 .1271-.03532 .8932-.01106c-.082.03744-.0395.02321-.1276.04268-.3102.10993-1.0072.16818-1.0887.18094l.7857-.12134c.0618-.00922-.2569.04515-.1826.04258-.4835.06601-1.0005.22912-1.4953.16897-.2284-.05786-.4428-.15452-.6571-.2515-.2636-.12687-.5199-.26808-.7536-.44541-.3033-.21466-.6054-.43089-.8936-.66582-.2616-.20384-.5226-.40841-.7946-.59853l.869-.19943z"/> <path d="m-1734.4033-75.40506c.3115.1277.6254.2494.9388.37233l.8397.32995c.2802.09771.5716.138.8655.1637 .2329.007.4625-.03857.6947-.04534l.2965-.03577c.0334-.00453.1332-.021.0998-.01637-.7846.10884-1.0297.1777-.6871.08666 .0928-.0217.1823-.05243.2711-.08646l.8891-.01581c-.0872.04243-.1753.07809-.2703.10023-.4727.12129-.9632.18182-1.4492.22674-.2309.01673-.4622.05065-.6941.03171-.296-.03067-.5896-.08317-.8693-.18826l-.8382-.33037-.9477-.36999 .8607-.22293z"/> <path d="m-1733.6274-71.53149c.2797.07952.5694.1022.8584.11846 .3193.03397.6352-.02279.9504-.06385-1.3717.22077-.6957.11328-.4012.02573 .1552-.04617.3066-.10318.4579-.16068 .2365-.08352.4536-.2066.6547-.35505 .0969-.08556.0514-.04102.1371-.13324l.8875-.05518c-.0856.10407-.0399.05375-.1377.15066-.199.16057-.4199.29209-.6604.3809-.5805.22661-1.1403.37583-1.7799.41108-.3167.04249-.6346.0806-.9546.04734-.2941-.01965-.5864-.05636-.8724-.13032l.8602-.23584z"/> <path d="m-1733.036-68.87698c.3067.04897.6165.07522.9262.09667 .3692.04658.7353.01221 1.1007-.04548 .0614-.00775.1228-.0148.1841-.02326l.3631-.05395 .1846-.02539c-.8135.12272-.8858.13818-.5132.0693 .2786-.04334.5454-.12925.7964-.25637 .2077-.11097.3952-.24714.5469-.42737 .0728-.10352.0386-.05085.1026-.15791l.8864-.07253c-.064.1156-.0299.05837-.1026.17157-.1488.1949-.3346.34216-.5474.46399-.2515.13673-.5179.23941-.8028.28231-.6401.12841-1.2906.19794-1.936.29389-.368.0502-.7353.07183-1.1056.02681-.3157-.02465-.632-.04957-.9443-.10408l.8609-.23821z"/> <path d="m-1731.3717-65.85529c.4336-.074.8692-.1332 1.306-.18346 .1268-.01459.5062-.06615.38-.047l-.6507.09512c.4379-.08111.8674-.20213 1.29-.34175 .3527-.12523.697-.27241 1.0297-.4435 .2417-.12181.4378-.30798.6413-.48213 .0721-.05475.1356-.11832.1967-.18468l.8888-.05555c-.0599.07331-.1217.1441-.199.20019-.2156.16718-.4026.37349-.6483.50051-.3349.1754-.6803.32804-1.036.45688-.421.14673-.8523.26417-1.2885.35651-.5228.07914-.8212.13214-1.2634.18672l-.3481.04157c-.0501.00615-.1999.02677-.1502.01857l.7434-.11628-.8917-.00173z"/> <path d="m-1728.6869-63.41711c.3904.00122.7778-.02222 1.1654-.06781 .6477-.08575-.2606.04398-.3918.06016-.0757.00934.1506-.02467.2253-.04002 .2189-.045.4276-.11376.6383-.18678 .3856-.14339.7339-.36249 1.0501-.62286 .1752-.15766.3433-.32201.4893-.50718l.8846-.06043c-.1462.19417-.3189.36217-.4974.52674-.3163.27073-.6663.49891-1.0544.65421-.7001.25556-1.4324.36422-2.1756.4354-.3947.04295-.7898.05862-1.1867.06673l.8529-.25814z"/> <path d="m-1727.3961-61.0535c.3433.057.6893.06919 1.0367.06619 .3003-.00184.6021-.02107.9004-.05773l.213-.03049-.6584.09358c.3423-.06622.6708-.18124.9846-.33126 .3048-.1401.5941-.30811.8703-.49794 .1874-.14506.3823-.28011.563-.4336l.8846-.04298c-.1792.16066-.3805.29174-.5672.44332-.2749.19538-.5635.36936-.8697.51162-.3155.15751-.6439.28202-.9899.35581-.7185.11163-1.4372.24897-2.1675.24048-.3541-.00086-.705-.02586-1.0567-.06544l.8568-.25156z"/> <path d="m-1726.3547-58.47554c.2776.11525.5583.22287.8381.33282 .3022.11641.6208.12845.9395.14991 .3623.02098 1.6523-.18494.1082.03537l1.0082-.15149 .1424-.02044c.6126-.07237-1.0613.18549-.476.06845l.1194-.02498 .1171-.02871 .8859-.00192-.1172.03215c-.4092.09349-.8216.14232-1.2393.20506l-.2741.03537 .7157-.11001c-.6087.09623-1.2152.22708-1.8343.20755-.3239-.02253-.6456-.05043-.9498-.17506l-.8473-.33044 .8635-.22363z"/> <path d="m-1726.5147-55.83565c.1353.24755.3056.46966.4874.68389s.3785.39927.6017.55896c.2358.15381.4962.2626.7553.37002 .2532.12074.5266.14506.8017.16228-.093.01317.3133-.02614.2356-.01389-1.3989.22046-.8848.15537-.5889.06046l.889-.00991c-.4364.17272-.9168.21547-1.3841.21095-.2794-.02131-.5527-.06822-.8081-.19039-.2633-.11068-.5266-.22605-.7619-.39024-.2231-.16943-.4273-.36238-.605-.57939s-.351-.45284-.4985-.6998l.8758-.16294z"/> <path d="m-1727.814-52.79369c.1617.20096.3287.39832.503.58854 .1394.1508.3163.24884.5004.33357 .2329.10076.4699.19179.7064.28374l.7547.29434c.2237.10369.463.11881.7049.12247 .039-.00275.0781-.00379.1169-.00824 .5697-.06529-1.0809.20042-.5196.05998l.8861-.00317c-.431.1292-.8838.18917-1.3329.20335-.2466-.00917-.4871-.04961-.7139-.15193l-.7523-.29481c-.2385-.09331-.4783-.18396-.7119-.28913-.1891-.09369-.3654-.20728-.5055-.3681-.1716-.19419-.3375-.39335-.5096-.58716l.8733-.18346z"/> <path d="m-1728.4631-49.92758c.1568.20875.3072.42181.4604.63305 .118.15819.251.29179.4206.39273 .1909.1038.3943.18183.5958.26224 .2047.08875.4214.15031.6437.17145 .1747.00966.3555.00661.5286-.02446 .3512-.03846.1227-.01461-.6811.10414l.8891.00693c-.9956.14868-.6425.10246-1.0569.15599-.1769.0179-.3575.02515-.5341.00088-.2231-.03838-.4399-.10042-.6469-.19322-.2055-.08181-.4127-.1629-.6026-.27759-.1699-.11435-.3066-.26007-.4257-.42679-.1512-.21708-.3065-.43095-.4684-.64029l.8775-.16506z"/> </g> <path d="m-381.63-515.35-5.5399 9.5954 0.01228-10.29-8.8071-0.01406 0.00723 26.606 4.4497-0.00534 2.2203 3.8562 22.987-13.33-4.4157-7.6201-8.7795 5.0726 5.4723-9.4783-7.6061-4.3914z" fill="#ff0" stroke="#000" stroke-linecap="round" stroke-linejoin="round" stroke-width="3.4078"/> </g> </svg>