<?xml version='1.0' encoding='utf-8'?>
<svg xmlns:xlink="http://www.w3.org/1999/xlink" xmlns="http://www.w3.org/2000/svg" width="210.89mm" height="210mm" fill-rule="evenodd" version="1.1" viewBox="0 0 22495 22400"> <defs><linearGradient id="b"><stop stop-color="#f00" offset="0"/><stop stop-color="#f00" offset=".58847"/><stop stop-color="#ff7f00" offset=".78535"/><stop stop-color="#ff0" offset="1"/></linearGradient><linearGradient id="a"><stop stop-color="#ff0" offset="0"/><stop stop-color="#ff8000" offset=".5"/><stop stop-color="#f00" offset="1"/></linearGradient><style type="text/css"> .fil2 {fill:none} .fil0 {fill:#F58634} .fil5 {fill:#FFF212} .fil3 {fill:#ED3238} .fil21 {fill:#ED373D} .fil35 {fill:#ED3B41} .fil22 {fill:#ED3D43} .fil17 {fill:#ED4248} .fil14 {fill:#ED454A} .fil23 {fill:#ED494F} .fil38 {fill:#ED4E53} .fil24 {fill:#ED5156} .fil16 {fill:#ED5C61} .fil4 {fill:#ED5F64} .fil25 {fill:#ED6368} .fil1 {fill:#ED6B6F} .fil26 {fill:#ED7074} .fil20 {fill:#ED7176} .fil37 {fill:#ED767A} .fil13 {fill:#ED7D81} .fil8 {fill:#ED8286} .fil27 {fill:#ED8588} .fil28 {fill:#ED9699} .fil34 {fill:#ED979A} .fil29 {fill:#ED9C9F} .fil12 {fill:#EDA4A6} .fil7 {fill:#EDABAD} .fil30 {fill:#EDB0B2} .fil36 {fill:#EDB9BB} .fil11 {fill:#EDBEBF} .fil33 {fill:#EDC2C4} .fil19 {fill:#EDCACB} .fil31 {fill:#EDCCCD} .fil10 {fill:#EDD8D8} .fil32 {fill:#EDDCDD} .fil15 {fill:#EDDFE0} .fil18 {fill:#EDE4E4} .fil9 {fill:#EDEAEA} .fil6 {fill:#EDEDED} </style><radialGradient id="h" cx="568.53" cy="366.48" r="41.859" gradientTransform="matrix(39.665 3.0603e-5 -2.1487e-5 27.849 -9914.9 447.27)" gradientUnits="userSpaceOnUse" xlink:href="#b"/><linearGradient id="ae" x1="22400" x2="22839" y1="9647.5" y2="9780.5" gradientUnits="userSpaceOnUse" xlink:href="#a"/><linearGradient id="ad" x1="23510" x2="23519" y1="11767" y2="11448" gradientUnits="userSpaceOnUse" xlink:href="#a"/><linearGradient id="ac" x1="22890" x2="23534" y1="10568" y2="10568" gradientUnits="userSpaceOnUse" xlink:href="#a"/><linearGradient id="ab" x1="22380" x2="22394" y1="11767" y2="11444" gradientUnits="userSpaceOnUse" xlink:href="#a"/><linearGradient id="aa" x1="21619" x2="22137" y1="10704" y2="10547" gradientUnits="userSpaceOnUse" xlink:href="#a"/><linearGradient id="z" x1="21280" x2="21283" y1="11776" y2="11448" gradientUnits="userSpaceOnUse" xlink:href="#a"/><linearGradient id="y" x1="20687" x2="21155" y1="10244" y2="10244" gradientUnits="userSpaceOnUse" xlink:href="#a"/><linearGradient id="x" x1="6448.5" x2="6448.5" y1="9240" y2="9750" gradientUnits="userSpaceOnUse" xlink:href="#a"/><linearGradient id="w" x1="7177" x2="6563" y1="10010" y2="10010" gradientUnits="userSpaceOnUse" xlink:href="#a"/><linearGradient id="v" x1="8240" x2="8240" y1="9240" y2="9750" gradientUnits="userSpaceOnUse" xlink:href="#a"/><linearGradient id="u" x1="8598.5" x2="8035.2" y1="10987" y2="11472" gradientUnits="userSpaceOnUse" xlink:href="#a"/><linearGradient id="t" x1="7177" x2="6563" y1="11813" y2="11812" gradientUnits="userSpaceOnUse" xlink:href="#a"/><linearGradient id="s" x1="10250" x2="10250" y1="11351" y2="11046" gradientUnits="userSpaceOnUse" xlink:href="#a"/><linearGradient id="r" x1="9939.6" x2="9554" y1="11554" y2="11276" gradientUnits="userSpaceOnUse" xlink:href="#a"/><linearGradient id="q" x1="9248" x2="9248" y1="11768" y2="11497" gradientUnits="userSpaceOnUse" xlink:href="#a"/><linearGradient id="p" x1="11250" x2="11131" y1="10232" y2="10279" gradientUnits="userSpaceOnUse" xlink:href="#a"/><linearGradient id="o" x1="11268" x2="11268" y1="11768" y2="11497" gradientUnits="userSpaceOnUse" xlink:href="#a"/><linearGradient id="n" x1="10299" x2="9873.2" y1="10376" y2="10225" gradientUnits="userSpaceOnUse" xlink:href="#a"/><linearGradient id="m" x1="12764" x2="12757" y1="9238.4" y2="9753.7" gradientUnits="userSpaceOnUse" xlink:href="#a"/><radialGradient id="g" cx="471.13" cy="364.12" r="15.25" gradientTransform="matrix(108.46 -1.0638e-5 9.3298e-6 95.124 -41630 -23641)" gradientUnits="userSpaceOnUse" xlink:href="#b"/><radialGradient id="f" cx="489.39" cy="405.8" r="16.625" gradientTransform="matrix(67.296 2.3142e-5 -3.7917e-5 111.77 -23007 -32783)" gradientUnits="userSpaceOnUse" xlink:href="#b"/><linearGradient id="l" x1="12864" x2="12705" y1="11440" y2="11441" gradientTransform="matrix(1.2072 0 0 1.2072 -6746.2 -1617.6)" gradientUnits="userSpaceOnUse" xlink:href="#a"/><linearGradient id="k" x1="12863" x2="12690" y1="10297" y2="10293" gradientUnits="userSpaceOnUse" xlink:href="#a"/><linearGradient id="j" x1="13153" x2="13150" y1="11292" y2="11842" gradientTransform="matrix(1.2072 0 0 1.2072 -6746.2 -1617.6)" gradientUnits="userSpaceOnUse" xlink:href="#a"/><linearGradient id="i" x1="13063" x2="13067" y1="10262" y2="10823" gradientTransform="matrix(1.2072 0 0 1.2072 -6746.2 -1617.6)" gradientUnits="userSpaceOnUse" xlink:href="#a"/><radialGradient id="e" cx="675.87" cy="375.28" r="48.703" gradientTransform="matrix(43.072 0 0 34.53 -12817 -1788)" gradientUnits="userSpaceOnUse" xlink:href="#b"/><radialGradient id="d" cx="674.08" cy="380.53" r="23.25" gradientTransform="matrix(41.202 -17.078 21.393 51.613 -19734 3150.5)" gradientUnits="userSpaceOnUse"><stop stop-color="#ff0" offset="0"/><stop stop-color="#ff0" offset=".60368"/><stop stop-color="#ff8000" offset=".85407"/><stop stop-color="#f00" offset="1"/></radialGradient><radialGradient id="c" cx="568.75" cy="376.54" r="20.469" gradientTransform="matrix(39.732 -12.515 17.208 54.63 -16467 -2331.9)" gradientUnits="userSpaceOnUse"><stop stop-color="#ff0" offset="0"/><stop stop-color="#ff0" offset=".77581"/><stop stop-color="#ff8000" offset=".88852"/><stop stop-color="#f00" offset="1"/></radialGradient></defs> <g transform="translate(.00023483 -2.7559e-5)" fill-rule="evenodd"><path class="fil0" d="m15202 18397c-1564.5-1840.9-1791.4-505.8-680.84 4002.9-1664.7-4360.2-2374.5-5339.3-2129.4-2938.2-596.34-2172.9-1008-1378.6-1234.9 2385.3-324.72-4179.2-721.88-5344.1-1192.7-3492.3 111.06-1917-555.29-894.5-2001.5 3066.2 719.47-4072.9 364.56-5152.1-1064.7-3236.4 538.39-1989.4-1477.6-1350.8-6046.6 1917 3757.9-3626.3 4822.6-5073.7 3194.1-4343.4 1610.3-1671.9 261.95-2012.3-4045.2-1022.5 4351.8-1487.2 5644.7-2282.7 3875-2385.3 2303.3-527.53 1493.3-1052.6-2427.6-1575.3 3581.6 109.85 4476.1-188.32 2683.5-894.5 1968.9 35.008 975.38-887.26-2980.5-2768 4705.5 1755.2 6138.4 2011.1 4301.1 766.54 2210.3 1094.9 733.95-736.37-4429.1-5493.8 4580 3308.8 6411.2 3919.6 5493.8 1831.3 1582.6 1719 1498.1 313.86-255.92-4216.6 2310.5 4391.6 3404.2 5456.3 3278.6 3194.1 703.77 2054.6 1058.7 1458.2 1064.7-1789 644.62 4128.5 1014 4994 1107 2597.8 379.05 2310.5 975.38 1487.2 1789-2469.8-485.28 3693.9 68.808 4517.2 1661 2469.8-770.17 1919.4 621.68 940.38 4173.1-2938.2-2852.5 4187.6-3249.7 5635-1192.7 4343.3-2092 1845.7-1254.2 1746.8 2512.1-298.17-3353.5 2398.6-3765.1 3307.6-1234.9 2725.8-2398.6 1092.5-1432.9 1376.2 2896 852.25-4482.2 959.69-5461.2 1457-2938.2 1490.8-2465 459.93-1783 1028.5 2043.7 1703.3-3671-214.87-4678.9 54.322-3023.9 808.8-2195.8-175.04-1585 931.92 1831.3 3322.1-3424.7-1850.6-4419.4-1907.3-2980.5-170.21-1862.6-1034.5-1024.9 498.56 2512.1 4599.3-3771.2-3696.3-5289.8-4377.2-4557-2043.7z" fill="#f60" stroke-width="1.1156"/><path class="fil5" d="m13086 14632c-746.02-877.6-854.67-241.43-324.72 1908.5-794.31-2078.7-1132.3-2545.9-1015.2-1401.5-284.89-1036.9-480.45-657.9-589.09 1137.1-154.52-1993-344.04-2548.3-568.57-1664.7 53.115-913.82-264.37-427.33-954.86 1461.9 342.83-1942.3 173.83-2456.6-508.21-1544 257.12-948.83-704.98-643.42-2883.9 913.82 1791.4-1729.9 2299.6-2419.1 1523.4-2071.5 767.75-796.72 124.34-959.69-1929-487.69 2075.1-709.81 2692-1088.9 1848.2-1137.1 1098.5-251.09 712.22-502.18-1157.7-750.85 1708.1 51.908 2134.3-89.33 1279.6-426.13 939.17 16.9 464.76-423.71-1422-1320.6 2244.1 837.77 2927.4 959.69 2051 365.77 1053.8 521.49 350.08-351.28-2112.5-2619.5 2183.7 1577.8 3057.7 1868.7 2619.5 872.77 754.47 819.66 714.64 149.69-121.92-2009.9 1102.1 2094.4 1623.6 2601.4 1563.3 1523.4 335.59 980.21 504.59 695.32 508.21-853.46 307.82 1968.9 484.07 2381.7 527.53 1238.5 181.07 1102.1 464.76 709.81 853.46-1178.2-231.77 1761.2 32.593 2153.6 791.9 1178.2-366.98 915.02 295.75 447.86 1990.6-1401.5-1360.5 1996.6-1550 2687.1-568.57 2071.5-997.11 880.02-597.54 832.94 1198.7-142.44-1599.5 1144.4-1795 1577.8-589.09 1300.1-1144.4 521.49-683.25 656.69 1381 405.6-2136.7 457.51-2603.8 694.12-1401.5 711.02-1175.8 219.7-849.84 490.11 975.38 812.42-1750.4-102.61-2230.8 26.558-1441.3 386.29-1046.6-83.294-755.68 444.23 872.77 1583.8-1633.3-882.43-2107.7-908.99-1422-80.879-888.47-493.73-488.9 237.81 1198.7 2193.4-1798.7-1762.4-2523-2087.2-2172.9-975.38z" fill="#ff0" stroke-width="1.1156"/><polygon class="fil2" transform="matrix(1.2072 0 0 1.2072 -6746.2 -1617.6)" points="22504 9243 23118 8719 22692 10378 22109 10780" fill="none" stroke-width=".92416"/><polygon class="fil2" transform="matrix(1.2072 0 0 1.2072 -6746.2 -1617.6)" points="22890 11769 23534 11446 24223 11446 23527 11769" fill="none" stroke-width=".92416"/><polygon class="fil2" transform="matrix(1.2072 0 0 1.2072 -6746.2 -1617.6)" points="22890 9843 23534 9366 23534 11446 22890 11769" fill="none" stroke-width=".92416"/><polygon class="fil2" transform="matrix(1.2072 0 0 1.2072 -6746.2 -1617.6)" points="21818 11769 22377 11446 23000 11446 22395 11769" fill="none" stroke-width=".92416"/><polygon class="fil2" transform="matrix(1.2072 0 0 1.2072 -6746.2 -1617.6)" points="21326 9843 21845 9366 22377 11446 21818 11769" fill="none" stroke-width=".92416"/><polygon class="fil2" transform="matrix(1.2072 0 0 1.2072 -6746.2 -1617.6)" points="20687 11769 21155 11446 21845 11446 21326 11769" fill="none" stroke-width=".92416"/><polygon class="fil2" transform="matrix(1.2072 0 0 1.2072 -6746.2 -1617.6)" points="20687 9243 21155 8719 21155 11446 20687 11769" fill="none" stroke-width=".92416"/><polygon class="fil1" transform="matrix(1.2072 0 0 1.2072 -6746.2 -1617.6)" points="22504 9243 23118 8719 22692 10378 22109 10780" fill="url(#ae)" stroke-width=".92416"/><polygon class="fil3" transform="matrix(1.2072 0 0 1.2072 -6746.2 -1617.6)" points="22890 11769 23534 11446 24223 11446 23527 11769" fill="url(#ad)" stroke-width=".92416"/><polygon class="fil3" transform="matrix(1.2072 0 0 1.2072 -6746.2 -1617.6)" points="22890 9843 23534 9366 23534 11446 22890 11769" fill="url(#ac)" stroke-width=".92416"/><polygon class="fil3" transform="matrix(1.2072 0 0 1.2072 -6746.2 -1617.6)" points="21818 11769 22377 11446 23000 11446 22395 11769" fill="url(#ab)" stroke-width=".92416"/><polygon class="fil3" transform="matrix(1.2072 0 0 1.2072 -6746.2 -1617.6)" points="21326 9843 21845 9366 22377 11446 21818 11769" fill="url(#aa)" stroke-width=".92416"/><polygon class="fil3" transform="matrix(1.2072 0 0 1.2072 -6746.2 -1617.6)" points="20687 11769 21155 11446 21845 11446 21326 11769" fill="url(#z)" stroke-width=".92416"/><polygon class="fil3" transform="matrix(1.2072 0 0 1.2072 -6746.2 -1617.6)" points="20687 9243 21155 8719 21155 11446 20687 11769" fill="url(#y)" stroke-width=".92416"/><path class="fil4" d="m18453 12204m325.93-3291.9h1338.7l516.66 2002.7 514.25-2002.7h1333.9v3291.9h-830.52v-2510.9l-644.62 2510.9h-752.06l-642.21-2510.9v2510.9h-832.94v-3291.9z" fill="#b20000" stroke-width="1.1156"/><polygon class="fil2" transform="matrix(1.2072 0 0 1.2072 -6746.2 -1617.6)" points="7177 9240 6563 9750 5720 9750 6397 9240" fill="none" stroke-width=".92416"/><polygon class="fil2" transform="matrix(1.2072 0 0 1.2072 -6746.2 -1617.6)" points="7177 10194 6563 10781 6563 9750 7177 9240" fill="none" stroke-width=".92416"/><polygon class="fil2" transform="matrix(1.2072 0 0 1.2072 -6746.2 -1617.6)" points="9033 9240 8567 9750 7447 9750 7995 9240" fill="none" stroke-width=".92416"/><polygon class="fil2" transform="matrix(1.2072 0 0 1.2072 -6746.2 -1617.6)" points="9074 11765 8612 12478 7573 10779 8112 10192" fill="none" stroke-width=".92416"/><polygon class="fil2" transform="matrix(1.2072 0 0 1.2072 -6746.2 -1617.6)" points="7177 11765 6563 12478 6563 11812 7177 11148" fill="none" stroke-width=".92416"/><polygon class="fil6" transform="matrix(1.2072 0 0 1.2072 -6746.2 -1617.6)" points="7177 9240 6563 9750 5720 9750 6397 9240" fill="url(#x)" stroke-width=".92416"/><polygon class="fil3" transform="matrix(1.2072 0 0 1.2072 -6746.2 -1617.6)" points="7177 10194 6563 10781 6563 9750 7177 9240" fill="url(#w)" stroke-width=".92416"/><polygon class="fil6" transform="matrix(1.2072 0 0 1.2072 -6746.2 -1617.6)" points="9033 9240 8567 9750 7447 9750 7995 9240" fill="url(#v)" stroke-width=".92416"/><polygon class="fil7" transform="matrix(1.2072 0 0 1.2072 -6746.2 -1617.6)" points="9074 11765 8612 12478 7573 10779 8112 10192" fill="url(#u)" stroke-width=".92416"/><polygon class="fil3" transform="matrix(1.2072 0 0 1.2072 -6746.2 -1617.6)" points="7177 11765 6563 12478 6563 11812 7177 11148" fill="url(#t)" stroke-width=".92416"/><path class="fil4" d="m161.15 10151h1017.6v1244.6l1067.1-1244.6h1352l-1199.9 1242.2 1253 2051h-1253l-694.12-1354.4-526.32 550.46v803.97h-1017.6v-3291.9z" fill="#b20000" stroke-width="1.1156"/><polygon class="fil2" transform="matrix(1.2072 0 0 1.2072 -6746.2 -1617.6)" points="9999 11351 9612 11046 10573 11046 10888 11351" fill="none" stroke-width=".92416"/><polygon class="fil2" transform="matrix(1.2072 0 0 1.2072 -6746.2 -1617.6)" points="9877 11768 9480 11497 9612 11046 9999 11351" fill="none" stroke-width=".92416"/><polygon class="fil2" transform="matrix(1.2072 0 0 1.2072 -6746.2 -1617.6)" points="9080 11768 8619 11497 9480 11497 9877 11768" fill="none" stroke-width=".92416"/><polygon class="fil2" transform="matrix(1.2072 0 0 1.2072 -6746.2 -1617.6)" points="11829 11768 11589 11497 10563 8769 10879 9243" fill="none" stroke-width=".92416"/><polygon class="fil2" transform="matrix(1.2072 0 0 1.2072 -6746.2 -1617.6)" points="11012 11768 10707 11497 11589 11497 11829 11768" fill="none" stroke-width=".92416"/><polygon class="fil2" transform="matrix(1.2072 0 0 1.2072 -6746.2 -1617.6)" points="10168 10805 9795 10456 10094 9476 10445 9897" fill="none" stroke-width=".92416"/><polygon class="fil3" transform="matrix(1.2072 0 0 1.2072 -6746.2 -1617.6)" points="9999 11351 9612 11046 10573 11046 10888 11351" fill="url(#s)" stroke-width=".92416"/><polygon class="fil3" transform="matrix(1.2072 0 0 1.2072 -6746.2 -1617.6)" points="9877 11768 9480 11497 9612 11046 9999 11351" fill="url(#r)" stroke-width=".92416"/><polygon class="fil3" transform="matrix(1.2072 0 0 1.2072 -6746.2 -1617.6)" points="9080 11768 8619 11497 9480 11497 9877 11768" fill="url(#q)" stroke-width=".92416"/><polygon class="fil8" transform="matrix(1.2072 0 0 1.2072 -6746.2 -1617.6)" points="11829 11768 11589 11497 10563 8769 10879 9243" fill="url(#p)" stroke-width=".92416"/><polygon class="fil3" transform="matrix(1.2072 0 0 1.2072 -6746.2 -1617.6)" points="11012 11768 10707 11497 11589 11497 11829 11768" fill="url(#o)" stroke-width=".92416"/><polygon class="fil3" transform="matrix(1.2072 0 0 1.2072 -6746.2 -1617.6)" points="10168 10805 9795 10456 10094 9476 10445 9897" fill="url(#n)" stroke-width=".92416"/><path class="fil4" d="m3663.1 12266m2362.4-543.22h-1158.9l-159.34 543.22h-1039.4l1237.3-3291.9h1109.4l1238.5 3291.9h-1064.7l-161.76-543.22zm-213.67-712.22-364.56-1183-362.15 1183h725.5z" fill="#b20000" stroke-width="1.1156"/><polygon class="fil2" transform="matrix(1.2072 0 0 1.2072 -6746.2 -1617.6)" points="14098 9423 14110 9435 14121 9446 14133 9458 14143 9470 14154 9482 14164 9494 14174 9507 14183 9519 14192 9532 14201 9545 14209 9558 14217 9571 14224 9585 14231 9598 14238 9612 14244 9626 14250 9640 14256 9654 14261 9669 14266 9683 14270 9698 14274 9713 14278 9728 14281 9743 14284 9758 14286 9774 14289 9790 14290 9806 14292 9822 14293 9838 14293 9854 14293 9871 14293 9885 14293 9899 14292 9912 14291 9926 14246 10491 14247 10477 14248 10462 14249 10447 14249 10432 14249 10414 14248 10396 14247 10379 14246 10361 14244 10344 14241 10327 14239 10310 14236 10294 14232 10277 14228 10261 14224 10245 14219 10229 14214 10213 14208 10198 14202 10182 14196 10167 14189 10152 14182 10137 14174 10123 14166 10108 14158 10094 14149 10080 14140 10066 14130 10052 14120 10039 14109 10025 14098 10012 14087 9999 14075 9986 14063 9973 14050 9961 14037 9949 14024 9937 14010 9925 13996 9914 13982 9903 13967 9892 13952 9882 13936 9873 13921 9863 13904 9854 13888 9846 13871 9837 13854 9830 13836 9822 13818 9815 13799 9808 13781 9802 13762 9796 13742 9791 13722 9785 13702 9781 13682 9776 13661 9772 13640 9769 13618 9765 13596 9763 13574 9760 13551 9758 13528 9756 13505 9755 13481 9754 13457 9753 13432 9753 11854 9753 12076 9242 13537 9242 13560 9243 13582 9243 13604 9244 13626 9245 13647 9247 13668 9249 13689 9251 13709 9254 13729 9257 13749 9260 13768 9264 13787 9268 13806 9272 13824 9277 13842 9282 13860 9288 13877 9294 13894 9300 13911 9306 13927 9313 13943 9320 13959 9328 13974 9336 13989 9344 14004 9353 14018 9362 14032 9371 14046 9381 14059 9391 14073 9402 14085 9412" fill="none" stroke-width=".92416"/><polygon class="fil2" transform="matrix(1.2072 0 0 1.2072 -6746.2 -1617.6)" points="12863 11225 12704 11894 12704 11342 12863 10713" fill="none" stroke-width=".92416"/><polygon class="fil2" transform="matrix(1.2072 0 0 1.2072 -6746.2 -1617.6)" points="12863 10233 12704 10823 12704 10306 12863 9754" fill="none" stroke-width=".92416"/><polygon class="fil2" transform="matrix(1.2072 0 0 1.2072 -6746.2 -1617.6)" points="13522 11686 13518 11700 13513 11714 13508 11727 13502 11740 13496 11752 13488 11764 13480 11776 13472 11787 13462 11797 13452 11808 13441 11818 13430 11827 13417 11836 13403 11844 13389 11851 13373 11858 13356 11864 13339 11870 13320 11875 13300 11880 13280 11884 13258 11887 13235 11890 13212 11892 13187 11893 13161 11894 13134 11894 12704 11894 12863 11225 13261 11225 13286 11225 13310 11224 13333 11223 13355 11221 13376 11218 13396 11215 13415 11211 13433 11207 13451 11203 13467 11197 13482 11191 13497 11185 13510 11178 13523 11171 13535 11163 13545 11154 13555 11145 13565 11135 13574 11125 13582 11115 13589 11104 13596 11093 13602 11082 13608 11070 13612 11058 13617 11045 13620 11032 13623 11019 13625 11005 13527 11657 13525 11672" fill="none" stroke-width=".92416"/><polygon class="fil2" transform="matrix(1.2072 0 0 1.2072 -6746.2 -1617.6)" points="13408 10659 13404 10672 13398 10684 13393 10695 13386 10707 13380 10717 13372 10727 13364 10737 13355 10746 13346 10755 13336 10763 13324 10771 13312 10778 13299 10785 13285 10791 13271 10796 13255 10802 13238 10806 13220 10810 13202 10814 13182 10816 13162 10819 13141 10821 13118 10822 13095 10823 13071 10823 12704 10823 12863 10233 13203 10233 13225 10233 13247 10232 13267 10231 13287 10229 13306 10227 13324 10224 13341 10221 13358 10217 13373 10213 13388 10208 13401 10203 13414 10198 13426 10191 13437 10185 13448 10178 13457 10170 13466 10162 13474 10153 13482 10144 13488 10135 13495 10125 13501 10115 13506 10104 13511 10093 13515 10081 13518 10069 13521 10057 13524 10044 13418 10619 13415 10633 13412 10646" fill="none" stroke-width=".92416"/><polygon class="fil6" transform="matrix(1.2072 0 0 1.2072 -6746.2 -1617.6)" points="13537 9242 13432 9753 11854 9753 12076 9242" fill="url(#m)" stroke-width=".92416"/><path d="m9590.6 9538.8-126.69 614.95c478.76 0 990.32 237.79 990.32 839.36l51.103-628.14c49.099-549.58-434.61-807.7-914.73-826.17z" fill="url(#g)" stroke-width="1.1156"/><path d="m11050 10710-5.323 41.521-5.323 42.586-4.259 42.585-4.259 43.651-2.129 44.715-2.129 45.78-8.517 222.51 3.192-47.909 4.258-47.91 4.259-45.779 6.388-45.78 6.388-44.715 7.452-251.26zm-1039.1 255.51-93.688 730.35 21.293 6.388 22.358 6.388 21.293 5.323 20.228 6.388 21.293 6.388 20.228 6.388 19.164 6.387 19.164 7.453 19.163 7.453 19.164 8.517 18.099 6.388 18.099 8.517 51.103 25.551 17.034 9.582 15.97 8.517 17.034 9.582 13.84 9.582 15.97 9.582 13.84 11.711 14.905 10.646 13.841 9.582 13.84 11.711 13.841 10.647 11.711 11.711 12.776 11.711 12.775 11.711 10.647 12.776 23.422 23.422 10.646 13.84 9.582 12.776 9.582 13.84 9.582 12.776 9.582 14.905 9.581 12.776 8.517 14.905 8.518 14.905 7.452 13.84 8.517 14.906 7.453 13.84 5.323 15.969 7.453 15.97 6.388 15.969 5.323 14.906 6.388 15.97 5.323 15.969 10.646 34.068 3.192 15.97 5.324 17.035 3.192 17.034 3.192 18.099 3.192 17.035 2.13 18.098 3.192 18.099 2.129 18.099 2.13 18.099 1.062 19.164 1.063 19.163 1.063 18.099v71.331l-1.063 15.971v15.969l42.586-795.29 1.063-14.905v-80.913l-1.063-17.034-1.063-18.099-2.129-17.035-1.063-17.034-2.129-17.034-2.13-15.97-2.129-17.034-3.192-15.97-3.192-17.034-4.259-15.97-3.192-14.905-3.192-15.97-5.324-15.969-4.258-13.841-5.323-15.969-4.259-14.906-6.388-13.84-6.388-14.905-5.323-14.905-6.388-13.84-7.452-13.841-7.453-12.775-7.452-13.841-6.388-12.776-8.517-13.84-8.518-12.776-8.517-13.84-8.517-11.711-9.582-11.711-9.581-12.776-19.164-23.422-11.711-10.647-10.647-11.711-22.357-22.357-12.776-9.582-11.711-10.647-12.776-10.646-12.775-9.582-12.776-9.582-13.841-9.581-13.84-9.582-14.905-8.517-14.905-9.582-13.841-8.517-15.969-8.518-15.97-8.517-14.905-6.388-17.034-8.517-15.97-7.452-17.034-7.453-18.099-7.452-17.035-5.323-18.098-7.453-18.099-6.388-19.164-6.388-19.164-5.323-19.163-6.388-19.164-4.258-20.228-6.388-20.228-5.324z" fill="url(#f)" stroke-width="1.1156"/><path d="m8750.5 12069-161.01 671.52 3.7108-675.01z" fill="url(#l)" stroke-width="1.1156"/><polygon class="fil3" transform="matrix(1.2072 0 0 1.2072 -6746.2 -1617.6)" points="12863 10233 12704 10823 12704 10306 12863 9754" fill="url(#k)" stroke-width=".92416"/><path d="m9001 12069c-98.553 0.238-199.88 2.129-252.32 2.129l-158.63 668.6h505.71c4.5284 0 8.3284 0.04 12.776 0 458.36-4.114 488.67-218.4 488.67-344.94 0-185.45-125.72-322.59-369.43-322.59l-1.0629 3.191c-42.55-5.494-131.96-6.606-225.7-6.387z" fill="url(#j)" stroke-width="1.1156"/><path d="m8966.9 10820c-84.651 0.17-169.85 1.063-208.67 1.063l-168.21 627.08h442.89c247.55 0 426.92-75.55 426.92-308.75 0-173.7-40.074-315.14-288.52-315.14v2.129c-35.825-5.589-119.76-6.545-204.41-6.388z" fill="url(#i)" stroke-width="1.1156"/><path class="fil4" d="m7226.6 13444m339.21-3291.9h1933.9l57.944 2.414 27.765 1.208 55.529 4.828 53.115 7.243 26.557 3.622 25.35 4.828 50.701 9.657 48.286 12.072 68.808 21.729 65.186 25.35 20.522 9.657 20.522 9.658 20.521 10.864 19.315 10.864 19.314 10.865 19.315 12.071 36.215 24.144 16.9 13.278 16.9 13.279 16.9 14.486 47.079 43.458 28.972 31.386 13.279 15.693 13.278 15.693 13.279 15.693 12.072 16.9 12.071 16.9 10.865 16.9 10.864 16.901 9.657 16.9 9.658 16.9 9.657 18.107 8.45 18.108 8.45 18.107 7.243 18.107 7.243 18.108 7.243 19.314 6.036 19.315 6.035 19.314 4.829 19.315 4.829 19.314 4.828 19.315 3.622 20.521 3.621 20.522 2.415 20.522 2.414 20.521 1.207 20.522 2.414 43.458v57.943l-1.207 18.108-2.414 36.214-2.414 16.9-2.415 16.901-4.828 33.8-3.622 16.9-3.621 16.9-3.622 16.901-4.828 15.693-9.658 31.386-6.035 15.693-18.108 47.079-7.243 15.693-14.486 28.972-8.45 14.486-8.45 14.485-8.45 14.486-19.314 28.972-9.658 13.279-9.657 13.279-10.864 13.278-10.865 13.279-10.864 13.279-15.693 16.9-16.9 16.9-16.901 15.693-18.107 15.693-19.314 15.693-41.044 28.972-21.729 14.486-22.936 13.279-22.935 13.278-24.144 12.072-25.35 12.071-26.557 12.072-26.558 10.864-27.765 10.865-28.972 10.864 65.186 18.108 20.522 6.035 20.522 6.036 20.521 7.243 19.315 7.243 38.629 14.486 18.107 7.243 18.108 8.45 36.214 16.9 33.801 16.9 16.9 8.45 15.693 9.658 31.386 19.314 14.486 9.657 14.486 9.658 14.486 10.864 14.485 10.864 13.279 10.865 13.279 10.864 13.279 10.865 36.214 36.214 10.865 12.072 10.864 12.072 10.865 13.278 10.864 13.279 9.657 13.279 19.315 26.557 33.8 57.944 7.243 14.485 7.243 14.486 14.486 31.386 6.036 15.693 6.035 15.693 6.036 15.694 4.829 15.693 4.828 16.9 9.658 33.8 3.621 16.9 3.622 16.901 3.621 16.9 3.622 18.107 2.414 18.107 2.414 18.108 2.415 18.107 1.207 18.107 1.207 18.108 1.207 19.314 1.207 19.315v85.708l-4.828 62.772-1.208 15.693-2.414 15.693-2.414 14.486-2.415 14.486-4.828 28.972-3.622 14.486-3.621 14.485-3.622 14.486-3.621 14.486-3.622 14.486-4.828 14.486-4.829 14.486-4.828 14.486-4.829 13.278-4.829 13.279-6.035 13.279-6.036 13.279-6.036 13.278-12.072 26.558-6.035 13.279-7.243 13.278-14.486 26.558-15.693 25.35-15.693 24.143-16.9 24.143-16.901 22.936-18.107 22.936-18.107 21.729-19.315 21.729-20.522 20.522-20.521 19.314-21.729 19.315-21.729 18.107-22.936 18.107-22.936 16.9-24.143 16.901-25.35 15.693-25.351 15.693-33.8 16.9-18.107 8.45-19.315 8.45-20.521 7.243-21.729 7.243-22.936 7.243-24.143 7.243-24.144 6.036-25.35 6.035-26.557 6.036-27.765 6.036-28.972 4.829-30.179 4.828-31.386 4.829-31.386 4.828-21.729 2.415-41.043 4.828-19.314 2.415-38.629 4.828-18.107 2.415-36.215 4.828-16.9 2.415-16.9 2.414-15.693 2.414-15.693 1.207-15.693 1.208-43.458 3.621-26.558 2.414-13.279 1.208-24.143 2.414-32.593 3.621h-1816.8zm1026.1 1291.7h470.79l27.765-1.207 26.558-1.208 25.35-2.414 24.143-2.414 24.143-3.622 22.936-3.621 21.729-4.829 20.522-6.036 19.314-6.035 18.107-7.243 16.9-7.243 15.693-8.45 14.486-8.45 13.279-9.658 12.072-9.657 10.864-10.864 10.864-10.865 9.6572-12.071 9.6573-12.072 8.4501-13.279 7.2429-13.278 7.2429-14.486 6.0358-14.486 4.8287-14.486 4.8286-15.693 3.6215-15.693 3.6214-16.9 2.4143-16.9 1.2072-18.108 1.2072-18.107v-37.422l-2.4144-33.8-2.4143-15.693-3.6214-15.693-3.6215-15.693-4.8286-14.486-4.8287-14.486-6.0358-13.279-7.2429-13.279-7.2429-13.278-8.4501-12.072-9.6573-12.072-9.6572-10.864-10.864-10.864-10.864-10.865-12.072-9.657-13.279-9.657-14.486-8.45-15.693-8.45-16.9-7.243-18.107-7.243-18.107-6.036-19.314-4.829-20.522-4.828-21.729-3.622-22.936-3.621-24.143-2.415-25.35-2.414-26.557-1.207-27.765-1.207h-476.83v625.31zm0 1292.9h551.67l31.386-1.207 30.179-1.207 28.972-2.414 27.765-3.622 26.557-3.621 25.35-4.829 24.143-6.036 22.936-6.035 21.729-7.243 20.522-7.243 19.314-8.45 18.107-9.658 16.9-9.657 15.693-10.864 14.486-10.865 13.279-12.071 12.072-12.072 10.864-13.278 10.864-13.279 9.6572-14.486 16.9-28.972 7.243-15.693 6.0358-15.693 6.0357-16.9 4.8287-16.9 3.6214-16.9 2.4143-18.108 2.4144-18.107 1.2071-19.315v-37.422l-1.2071-18.107-2.4144-16.9-2.4143-16.9-3.6214-15.693-4.8287-15.693-4.8286-15.693-6.0358-14.486-7.2429-14.486-8.4501-14.486-8.4501-13.279-9.6573-13.278-21.729-24.144-12.072-12.071-13.279-10.865-14.486-10.864-15.693-9.657-16.9-9.658-18.107-8.45-19.314-8.45-20.522-7.243-21.729-6.035-22.936-6.036-24.143-4.829-25.35-4.828-26.558-3.622-27.765-3.621-28.972-2.415-30.179-1.207-31.386-1.207h-549.26v666.35z" fill="#b20000" stroke-width="1.1156"/><polygon class="fil11" transform="matrix(1.2072 0 0 1.2072 -6746.2 -1617.6)" points="20452 10188 20433 10163 20412 10138 2e4 9599 20019 9622 20037 9645" fill="#edbebf" stroke-width=".92416"/><polygon class="fil2" transform="matrix(1.2072 0 0 1.2072 -6746.2 -1617.6)" points="17704 10109 17712 10076 17720 10044 17729 10013 17739 9982 17750 9952 17761 9922 17773 9893 17785 9864 17798 9836 17812 9808 17826 9781 17842 9754 17857 9728 17874 9703 17891 9678 17909 9653 17927 9629 17946 9606 17966 9583 17987 9561 18008 9539 18030 9518 18052 9497 18075 9477 18098 9458 18122 9440 18147 9422 18172 9405 18197 9388 18223 9372 18250 9357 18277 9343 18304 9329 18333 9316 18361 9303 18390 9292 18420 9280 18450 9270 18481 9260 18513 9251 18544 9243 18577 9235 18610 9228 18643 9222 18677 9216 18711 9211 18746 9206 18782 9203 18818 9200 18855 9197 18892 9196 18929 9195 18967 9194 19007 9195 19045 9196 19083 9197 19121 9200 19157 9203 19194 9206 19229 9211 19265 9216 19299 9221 19333 9227 19367 9234 19400 9242 19432 9250 19464 9259 19495 9269 19526 9279 19556 9290 19585 9302 19614 9314 19643 9327 19671 9340 19698 9354 19724 9369 19751 9385 19776 9401 19801 9418 19826 9435 19849 9454 19873 9473 19896 9492 19918 9512 19939 9533 19960 9554 19981 9576 2e4 9599 20019 9622 20037 9645 20452 10188 20433 10163 20412 10138 20391 10114 20369 10090 20346 10067 20323 10045 20299 10023 20275 10002 20249 9981 20224 9962 20197 9943 20170 9925 20143 9907 20114 9890 20086 9874 20056 9859 20026 9844 19995 9830 19964 9817 19932 9805 19900 9793 19867 9782 19833 9771 19799 9762 19764 9753 19728 9745 19692 9737 19655 9730 19618 9724 19580 9719 19541 9714 19502 9710 19462 9707 19422 9705 19381 9703 19339 9702 19297 9701 19256 9702 19215 9703 19175 9705 19135 9707 19096 9710 19058 9714 19020 9719 18983 9725 18946 9731 18910 9738 18875 9745 18840 9754 18806 9763 18772 9772 18738 9783 18706 9794 18674 9806 18642 9819 18611 9832 18581 9847 18551 9861 18522 9877 18493 9893 18465 9911 18437 9928 18410 9947 18384 9966 18358 9986 18333 10007 18308 10028 18284 10050 18261 10073 18238 10097 18216 10121 18194 10146 18173 10171 18153 10197 18134 10223 18116 10250 18098 10278 18081 10306 18064 10335 18049 10364 18034 10394 18020 10424 18006 10455 17994 10487 17982 10519 17970 10552 17960 10585 17950 10619 17941 10654 17932 10689 17925 10724 17918 10761 17912 10798 17906 10835 17902 10873 17898 10911 17894 10951 17892 10990 17890 11031 17889 11071 17888 11113 17889 11143 17889 11172 17890 11201 17891 11230 17893 11258 17895 11287 17897 11314 17900 11342 17903 11369 17907 11396 17911 11423 17915 11449 17919 11475 17924 11501 17930 11526 17935 11551 17942 11576 17948 11600 17955 11624 17962 11648 17969 11672 17977 11695 17746 11040 17738 11019 17731 10997 17725 10975 17718 10953 17713 10930 17707 10907 17702 10884 17697 10860 17692 10837 17688 10813 17684 10788 17680 10764 17677 10739 17674 10714 17672 10688 17669 10662 17668 10636 17666 10610 17665 10583 17664 10556 17664 10529 17663 10501 17664 10463 17665 10425 17666 10388 17669 10351 17672 10315 17675 10279 17680 10244 17685 10209 17691 10175 17697 10142" fill="none" stroke-width=".92416"/><polygon class="fil2" transform="matrix(1.2072 0 0 1.2072 -6746.2 -1617.6)" points="18857 11211 18871 11214 18885 11216 18899 11218 18913 11219 18928 11220 18943 11221 18958 11222 18973 11222 18988 11222 19004 11221 19019 11220 19034 11219 19049 11218 19063 11216 19077 11214 19091 11211 19105 11209 19119 11206 19132 11202 19145 11199 19158 11195 19171 11190 19184 11186 19196 11181 19208 11175 19220 11170 19231 11164 19243 11158 19254 11151 19265 11144 19276 11137 19286 11130 19296 11122 19306 11114 19316 11105 19326 11096 19335 11087 19344 11078 19353 11068 19362 11058 19370 11048 19379 11037 19387 11025 19394 11013 19402 11001 19409 10988 19416 10974 19422 10960 19429 10945 19435 10930 19440 10915 19446 10899 19451 10882 19456 10865 19461 10847 19465 10829 19470 10811 19474 10792 19477 10772 19481 10752 19484 10731 19487 10710 19489 10688 19491 10666 19493 10644 19495 10620 19497 10597 19498 10573 19499 10548 19500 10523 19500 10497 19500 10471 19500 10449 19500 10427 19499 10406 19498 10385 19497 10364 19495 10344 19493 10324 19491 10304 19489 10285 19486 10267 19483 10248 19480 10230 19476 10213 19473 10195 19468 10178 19464 10162 19459 10146 19454 10130 19449 10115 19444 10100 19438 10085 19432 10071 19426 10057 19419 10044 19412 10031 19405 10018 19398 10006 19761 10577 19769 10591 19777 10604 19785 10619 19792 10633 19799 10648 19805 10663 19811 10679 19817 10695 19823 10712 19828 10729 19833 10746 19838 10764 19842 10782 19846 10801 19850 10820 19854 10839 19857 10859 19860 10879 19862 10900 19865 10921 19867 10943 19868 10964 19870 10987 19871 11009 19872 11032 19872 11056 19872 11080 19872 11108 19872 11136 19871 11163 19870 11190 19868 11216 19867 11241 19865 11266 19863 11291 19860 11315 19857 11338 19854 11361 19851 11383 19847 11405 19843 11426 19839 11447 19835 11467 19830 11487 19825 11506 19819 11524 19814 11542 19808 11559 19801 11576 19795 11592 19788 11608 19781 11623 19773 11638 19766 11652 19758 11666 19749 11679 19741 11691 19732 11703 19723 11714 19714 11725 19704 11736 19694 11746 19684 11756 19673 11765 19663 11774 19652 11783 19641 11791 19630 11799 19618 11807 19606 11815 19594 11822 19582 11828 19569 11835 19556 11841 19543 11847 19530 11852 19517 11857 19503 11862 19489 11866 19475 11870 19460 11873 19446 11877 19431 11880 19415 11882 19400 11885 19384 11886 19369 11888 19352 11889 19336 11890 19319 11891 19303 11891 19286 11891 19270 11890 19254 11889 19238 11888 19223 11886 19207 11884 19192 11882 19177 11879 19163 11876 19148 11873 19134 11869 19120 11865 19106 11861 19093 11856 19079 11851 19066 11846 19053 11840 19040 11834 19028 11827 19015 11820 19003 11813 18991 11805 18980 11798 18968 11789 18957 11781 18946 11772 18935 11762 18925 11753 18914 11743 18904 11732 18894 11722 18885 11710 18875 11699 18866 11687 18857 11674 18849 11662 18841 11648 18833 11634 18825 11620 18818 11606 18811 11590 18517 10944 18524 10958 18531 10971 18538 10984 18545 10997 18553 11009 18560 11021 18569 11033 18577 11044 18586 11055 18595 11065 18604 11075 18613 11084 18623 11094 18633 11103 18643 11111 18653 11120 18663 11128 18674 11135 18685 11143 18696 11150 18707 11156 18718 11163 18730 11169 18742 11174 18754 11180 18766 11185 18778 11190 18791 11194 18804 11198 18817 11202 18830 11205 18843 11208" fill="none" stroke-width=".92416"/><g stroke-width="1.1156"><path d="m14623 11521 321.52 950.73c0-2030 682.57-2377.4 1554.4-2377.4 914.14 0 1121.7 287.47 1394.7 525.93l-545.1-704.79c-306.25-320.57-616.71-433.31-1150.9-433.31-507.09 0-1821.4 180.08-1574.6 2038.8z" fill="url(#e)"/><path d="m16790 10893c82.77 597.51-194.1 1338.2-926.23 972.02 0 332.43 97.271 871.94 671.79 871.94 651.3 0 709.91-492.33 706.92-1037-2.984-544.95-304.64-807-452.48-807z" fill="url(#d)"/><path class="fil4" d="m14635 13439m208.84-1644.1v-49.493l1.207-49.493 2.414-48.287 3.622-48.286 3.621-47.079 4.829-47.079 6.036-45.872 6.035-44.665 7.243-44.665 8.45-43.457 9.658-43.458 9.657-42.251 10.864-42.25 12.072-41.043 13.279-39.837 13.278-39.836 14.486-38.629 15.693-38.629 15.693-37.422 16.901-36.214 18.107-36.215 19.314-35.008 19.315-35.007 20.522-33.8 21.728-33.801 22.936-32.593 22.936-31.386 24.144-31.386 50.7-60.358 26.558-28.972 27.764-28.972 28.972-27.764 28.972-26.558 60.357-50.7 31.387-24.143 31.386-22.936 32.593-22.936 33.8-21.729 33.801-20.522 70.015-38.629 36.214-18.107 36.215-16.9 37.422-15.693 38.629-15.693 38.629-14.486 79.672-26.558 41.044-12.071 41.043-10.865 42.251-9.657 43.457-9.657 43.458-8.45 44.665-7.243 44.664-6.036 45.872-6.036 45.872-4.828 47.079-3.622 48.287-3.621 48.286-2.415 49.493-1.207h100.19l50.701 1.207 49.493 2.415 48.287 2.414 48.286 3.621 47.079 4.829 47.079 6.036 45.872 6.036 44.665 7.242 44.665 8.451 86.915 19.314 42.25 10.864 41.044 12.072 41.043 12.072 39.836 13.278 39.836 14.486 38.629 15.693 37.422 15.693 37.422 16.901 36.215 18.107 35.007 18.107 35.008 19.315 33.8 20.521 33.801 21.729 32.593 21.729 31.386 22.936 31.386 24.143 30.179 24.143 30.179 25.351 28.972 26.557 27.764 27.765 27.765 27.764 26.557 28.972 25.351 28.972 48.286 60.358 22.936 31.386 43.458 65.186 20.521 33.8 19.315 33.801 18.107 35.007 18.107 35.008 16.901 36.215 15.693 37.422 15.693 37.421 14.486 38.629 13.278 38.629 12.072 39.837 12.071 39.836 10.865 41.043 9.657 42.251 9.657 42.25 8.45 43.458 7.243 43.457 12.072 89.33 4.829 45.872 3.621 47.079 3.622 47.079 2.414 48.286 1.207 48.287v120.72l-1.207 35.008-1.207 35.007-1.207 33.801-2.415 33.8-2.414 33.801-2.414 32.593-3.622 32.593-3.621 32.593-3.622 31.386-4.828 31.386-4.829 31.386-4.829 30.179-6.035 30.179-6.036 30.179-6.036 28.972-7.243 28.972-7.243 28.971-14.486 55.53-8.45 27.764-8.45 26.558-8.45 26.557-9.657 26.558-9.658 25.35-9.657 25.35-10.864 25.35-10.865 24.144-10.864 24.143-12.072 24.143-12.071 22.936-12.072 22.936-12.071 22.936-13.279 21.729-13.279 21.728-13.279 21.729-14.485 21.729-14.486 20.522-14.486 20.521-14.486 20.522-15.693 20.522-15.693 19.314-15.693 19.315-16.9 19.314-16.901 19.315-33.8 36.214-18.107 18.108-18.108 16.9-18.107 16.9-19.315 16.9-19.314 16.901-38.629 31.386-41.043 31.386-20.522 14.486-20.522 14.485-43.457 28.972-21.729 13.279-22.936 13.279-22.936 13.278-45.872 24.144-48.286 24.143-24.143 10.864-25.351 10.864-25.35 9.658-25.35 9.657-26.558 9.657-26.557 8.45-53.115 16.901-83.294 21.728-86.915 18.108-28.972 4.828-60.358 9.658-30.179 3.621-31.386 3.622-31.386 3.621-62.772 4.829-32.593 2.414-65.187 2.414-67.6 2.415h-102.61l-67.601-2.415-32.593-1.207-32.593-2.414-65.187-4.829-31.386-2.414-62.772-7.243-30.179-3.622-30.179-4.828-30.178-4.829-28.972-4.828-28.972-4.829-28.972-6.036-55.529-12.071-27.765-7.243-79.672-21.729-26.557-8.45-25.351-8.45-25.35-8.45-25.35-9.658-48.287-19.314-24.143-9.658-45.872-21.728-22.936-10.865-22.936-12.071-21.728-12.072-21.729-12.071-43.458-26.558-20.521-13.279-20.522-14.485-20.522-14.486-20.521-14.486-20.522-15.693-19.315-15.693-19.314-15.693-38.629-33.801-18.108-16.9-18.107-18.107-18.107-18.108-18.108-18.107-18.107-19.314-33.8-38.63-16.901-20.521-16.9-20.522-15.693-20.522-15.693-21.728-31.386-43.458-15.693-22.936-28.972-45.872-14.486-24.143-14.485-24.143-13.279-24.143-13.279-25.351-12.071-25.35-12.072-25.35-12.072-26.558-10.864-26.557-10.864-26.558-10.865-27.764-9.657-27.765-9.657-27.764-9.658-27.765-8.45-28.972-8.45-28.971-7.243-28.972-14.486-60.358-6.035-30.179-12.072-62.772-4.829-31.386-4.828-32.593-3.622-32.594-3.621-32.593-3.622-33.8-2.414-33.801-2.414-33.8-2.415-33.8-1.207-35.008-1.207-35.007-1.207-35.008v-36.215zm1017.6 4.829v61.565l1.207 30.179 1.207 28.972 1.207 28.971 2.415 27.765 2.414 27.765 2.414 26.557 3.622 26.558 3.621 25.35 3.622 25.35 3.621 25.35 4.829 24.143 4.828 24.144 4.829 22.936 6.036 22.935 6.036 21.729 6.035 21.729 7.243 20.522 7.243 20.521 7.243 20.522 7.243 19.315 8.45 19.314 8.45 18.107 8.451 18.108 19.314 33.8 9.657 15.693 10.865 15.693 10.864 14.486 10.865 14.486 10.864 14.486 12.071 13.279 12.072 13.278 12.072 12.072 12.071 12.072 13.279 12.071 26.557 21.729 13.279 10.864 13.279 9.658 28.972 19.314 28.971 16.9 15.693 8.45 31.386 14.486 31.387 12.072 16.9 6.036 16.9 4.828 16.9 4.829 16.9 4.828 16.9 3.622 18.108 3.621 18.107 3.622 18.108 2.414 18.107 2.415 19.314 2.414 57.944 3.621h39.836l20.522-1.207 38.629-2.414 38.629-4.829 18.107-2.414 18.107-3.622 18.108-3.621 18.107-3.622 33.801-9.657 16.9-4.828 33.8-12.072 15.693-6.036 47.079-21.729 43.458-25.35 14.486-9.657 13.279-9.657 13.278-9.658 26.558-21.728 12.071-10.865 12.072-12.071 12.071-12.072 12.072-13.279 10.864-13.278 10.865-13.279 10.864-14.486 10.865-14.486 9.657-15.693 19.314-33.8 8.45-18.108 8.451-18.107 8.45-19.315 8.45-19.314 7.243-20.522 7.243-20.521 7.243-21.729 6.035-21.729 6.036-22.936 12.072-48.286 4.828-25.351 4.829-25.35 4.829-26.557 3.621-26.558 3.622-27.764 3.621-27.765 2.414-28.972 2.415-28.971 2.414-30.179 2.414-31.386 1.207-31.386 1.208-32.594 1.207-32.593v-125.54l-1.207-27.765-1.208-27.764-1.207-26.558-2.414-26.557-2.414-25.351-2.415-25.35-3.621-25.35-3.622-24.143-3.621-24.143-4.829-22.936-4.828-22.936-4.829-22.936-4.829-21.729-6.035-21.729-6.036-20.522-6.036-20.521-7.243-20.522-7.243-19.314-7.243-19.315-8.45-18.107-8.45-18.108-8.45-18.107-8.45-16.9-9.657-16.9-9.658-15.693-9.657-15.694-10.864-15.693-10.865-14.485-10.864-14.486-12.072-13.279-12.071-13.279-12.072-13.278-12.071-12.072-12.072-12.072-13.279-12.071-13.278-10.865-13.279-10.864-13.279-9.657-14.486-9.658-14.486-9.657-14.486-8.45-28.971-16.9-47.079-21.729-15.693-6.036-15.693-6.035-16.901-6.036-16.9-4.829-16.9-4.828-16.9-4.829-36.215-7.243-18.107-3.622-18.108-2.414-18.107-2.414-19.314-2.414-19.315-1.208-38.629-2.414h-39.836l-19.315 1.207-18.107 1.207-18.107 1.208-54.322 7.242-16.901 3.622-16.9 3.621-16.9 3.622-16.9 4.829-16.9 4.828-15.693 4.829-15.693 6.036-15.694 6.035-15.693 6.036-15.693 7.243-14.485 7.243-43.458 25.35-14.486 9.658-14.486 9.657-13.279 9.657-26.557 21.729-13.279 10.864-13.278 12.072-12.072 12.071-12.072 12.072-12.071 13.279-12.072 13.278-12.071 13.279-10.865 14.486-10.864 14.486-10.865 15.693-9.657 15.693-19.314 33.8-8.45 18.108-8.451 18.107-8.45 19.315-7.243 19.314-7.242 20.522-7.243 20.521-7.243 21.729-12.072 43.458-6.036 22.936-4.828 22.936-9.658 48.286-3.621 25.35-3.622 25.351-3.621 26.557-3.621 26.558-2.415 27.764-2.414 27.765-2.414 27.764-1.208 28.972-1.207 28.972-1.207 30.179v61.565z" fill="#b20000"/></g><polygon class="fil2" transform="matrix(1.2072 0 0 1.2072 -6746.2 -1617.6)" points="15133 9480 15157 9460 15181 9442 15205 9424 15230 9407 15256 9390 15282 9375 15308 9360 15335 9345 15363 9331 15391 9318 15420 9306 15449 9294 15479 9283 15509 9272 15540 9263 15571 9254 15603 9245 15635 9237 15668 9230 15701 9224 15735 9218 15770 9213 15805 9209 15840 9205 15876 9202 15913 9200 15950 9198 15988 9197 16026 9197 16065 9197 16103 9198 16141 9200 16179 9202 16216 9205 16252 9209 16288 9213 16323 9218 16358 9224 16392 9230 16425 9237 16458 9244 16490 9253 16522 9262 16553 9271 16584 9281 16614 9292 16644 9304 16673 9316 16701 9329 16729 9343 16756 9357 16783 9372 16809 9387 16835 9403 16860 9420 16884 9438 16908 9456 16931 9475 16954 9494 17124 9645 17099 9624 17074 9603 17048 9584 17022 9565 16995 9547 16967 9529 16939 9512 16910 9496 16881 9481 16851 9466 16820 9452 16789 9439 16757 9427 16724 9415 16691 9404 16657 9393 16623 9384 16588 9375 16553 9367 16516 9359 16480 9352 16442 9346 16404 9341 16366 9336 16326 9332 16287 9329 16246 9327 16205 9325 16164 9324 16121 9323 16080 9324 16039 9325 15999 9327 15960 9329 15921 9332 15883 9336 15845 9341 15808 9347 15771 9353 15735 9360 15699 9367 15664 9376 15630 9385 15596 9394 15563 9405 15530 9416 15498 9428 15467 9441 15436 9454 15405 9469 15375 9483 15346 9499 15317 9515 15289 9533 15262 9550 15235 9569 15208 9588 15183 9608 15157 9629 15133 9650 15108 9672 15085 9695 15062 9719 15040 9743 15019 9768 14998 9793 14978 9819 14959 9845 14940 9872 14922 9900 14905 9928 14889 9957 14873 9986 14858 10016 14844 10046 14831 10077 14818 10109 14806 10141 14795 10174 14784 10207 14774 10241 14765 10276 14757 10311 14749 10346 14742 10383 14736 10420 14731 10457 14726 10495 14722 10533 14719 10573 14716 10612 14714 10653 14723 10428 14725 10390 14727 10353 14730 10317 14734 10282 14738 10246 14743 10212 14749 10178 14755 10144 14762 10111 14770 10079 14779 10047 14788 10015 14798 9984 14808 9954 14819 9924 14831 9895 14843 9866 14856 9838 14870 9810 14885 9783 14900 9757 14916 9730 14932 9705 14949 9680 14967 9655 14986 9632 15005 9608 15025 9585 15045 9563 15066 9541 15088 9520 15110 9500" fill="none" stroke-width=".92416"/><polygon class="fil2" transform="matrix(1.2072 0 0 1.2072 -6746.2 -1617.6)" points="15800 11177 15812 11182 15824 11187 15837 11192 15849 11196 15862 11201 15875 11204 15888 11208 15902 11211 15915 11214 15929 11216 15943 11218 15957 11220 15972 11221 15986 11223 16001 11223 16016 11224 16031 11224 16047 11224 16062 11223 16077 11223 16092 11221 16107 11220 16121 11218 16136 11216 16150 11214 16164 11211 16177 11208 16191 11205 16204 11201 16217 11197 16229 11193 16242 11188 16254 11183 16266 11178 16278 11172 16290 11166 16301 11160 16312 11154 16323 11147 16334 11140 16344 11132 16355 11124 16365 11116 16375 11108 16384 11099 16394 11090 16403 11080 16412 11071 16420 11061 16429 11050 16437 11039 16445 11028 16453 11016 16460 11003 16467 10990 16474 10976 16481 10962 16487 10948 16493 10933 16499 10917 16504 10901 16510 10885 16515 10867 16519 10850 16524 10832 16528 10813 16532 10794 16536 10774 16539 10754 16542 10734 16545 10712 16547 10691 16550 10669 16552 10646 16554 10623 16555 10599 16556 10575 16557 10550 16558 10525 16558 10499 16558 10473 16558 10451 16558 10429 16557 10408 16556 10387 16555 10366 16553 10346 16552 10326 16549 10307 16547 10288 16544 10269 16541 10251 16538 10233 16535 10215 16531 10198 16527 10181 16522 10164 16518 10148 16513 10133 16508 10117 16502 10102 16496 10088 16490 10073 16484 10060 16477 10046 16470 10033 16463 10020 16456 10008 16448 9996 16577 10186 16586 10199 16594 10213 16602 10226 16609 10241 16616 10255 16623 10270 16629 10285 16636 10301 16642 10317 16647 10334 16653 10351 16658 10368 16662 10386 16667 10404 16671 10423 16675 10442 16678 10461 16681 10481 16684 10501 16687 10522 16689 10543 16691 10565 16693 10586 16694 10609 16695 10631 16696 10654 16696 10678 16697 10702 16696 10730 16696 10758 16695 10785 16694 10812 16693 10838 16691 10863 16689 10888 16687 10913 16685 10937 16682 10960 16679 10983 16675 11005 16672 11027 16668 11048 16664 11069 16659 11089 16654 11109 16649 11128 16644 11146 16638 11164 16632 11181 16626 11198 16619 11214 16612 11230 16605 11245 16598 11260 16590 11274 16582 11288 16574 11301 16565 11313 16556 11325 16547 11336 16538 11347 16528 11358 16518 11368 16508 11378 16498 11387 16487 11396 16476 11405 16465 11413 16454 11421 16442 11429 16431 11437 16419 11444 16406 11450 16394 11457 16381 11463 16368 11469 16355 11474 16341 11479 16327 11484 16313 11488 16299 11492 16285 11495 16270 11499 16255 11502 16240 11504 16224 11507 16209 11508 16193 11510 16177 11511 16160 11512 16144 11513 16127 11513 16111 11513 16094 11512 16078 11511 16063 11510 16047 11508 16032 11506 16017 11504 16002 11501 15987 11498 15973 11495 15958 11491 15944 11487 15931 11483 15917 11478 15904 11473 15890 11468 15877 11462 15865 11456 15852 11449 15840 11442 15828 11435 15816 11427 15804 11420 15793 11411 15782 11403 15771 11394 15760 11384 15749 11375 15739 11365 15729 11354 15719 11343 15709 11332 15700 11321 15691 11309 15682 11296 15673 11284 15665 11270 15657 11256 15649 11242 15642 11227 15635 11212 15628 11197 15622 11181 15616 11164 15610 11147 15604 11130 15599 11112 15594 11094 15590 11075 15585 11056 15530 10801 15534 10819 15538 10836 15542 10853 15547 10869 15552 10886 15558 10901 15563 10917 15569 10931 15576 10946 15582 10960 15589 10974 15596 10987 15603 10999 15611 11012 15619 11024 15627 11035 15635 11046 15644 11057 15653 11067 15662 11077 15672 11087 15681 11096 15691 11105 15701 11114 15711 11122 15722 11130 15732 11138 15743 11145 15754 11152 15765 11159 15777 11165 15788 11171" fill="none" stroke-width=".92416"/><g stroke-width="1.1156"><path d="m11050 10710-7.453 251.26c103.25-754.89 950.6-1265.4 1524.6-1320.2 549.04 86.572 955.5 50.83 1327.6 358.79l-175.66-156.5c-404.43-336.86-768.8-370.82-1112.9-365.9-970.18 13.868-1446 516.52-1556.2 1232.5z" fill="url(#h)"/><path d="m13167 10560c126.86 272.26 96.794 540.27 55.362 780.38-44.301 256.75-231.06 509.52-573.63 509.52-216.82 0-462.37-120.87-613.45-308.3 0 282.29 194.96 735.67 608.98 735.67 695.82 0 770.01-493.72 770.01-942.22 0-610.83-175.65-775.06-247.27-775.06z" fill="url(#c)"/><path class="fil4" d="m10803 12973m208.84-1644.1v-49.494l1.208-49.493 2.414-48.286 3.621-48.287 3.622-47.079 4.829-47.079 6.035-45.872 6.036-44.664 7.243-44.665 8.45-43.458 9.657-43.458 9.658-42.25 10.864-42.251 12.072-41.043 13.278-39.836 13.279-39.836 14.486-38.629 15.693-38.629 15.693-37.422 16.9-36.215 18.108-36.214 19.314-35.008 19.315-35.008 20.521-33.8 21.729-33.8 22.936-32.594 22.936-31.386 24.143-31.386 25.35-30.179 25.351-30.179 26.557-28.971 27.765-28.972 28.972-27.765 28.971-26.557 60.358-50.701 31.386-24.143 31.386-22.936 32.594-22.936 33.8-21.729 33.8-20.522 70.015-38.629 36.215-18.107 36.215-16.9 37.422-15.693 38.629-15.693 38.629-14.486 79.672-26.558 41.043-12.072 41.044-10.864 42.25-9.6573 43.458-9.6572 43.457-8.4501 44.665-7.243 44.665-6.0358 45.872-6.0358 45.872-4.8286 94.158-7.2429 48.286-2.4143 49.494-1.2072h100.19l50.7 1.2072 49.494 2.4143 48.286 2.4143 48.286 3.6215 47.08 4.8286 47.079 6.0358 45.872 6.0358 44.664 7.2429 44.665 8.4501 43.458 9.6572 43.457 9.6573 42.251 10.864 82.087 24.143 39.836 13.279 39.836 14.486 38.629 15.693 37.422 15.693 37.422 16.9 36.214 18.107 35.008 18.107 35.007 19.314 33.801 20.522 33.8 21.729 32.593 21.729 31.387 22.936 31.386 24.143 30.179 24.143 30.178 25.35 28.972 26.558 27.765 27.764 27.764 27.765 26.558 28.971 25.35 28.972 48.286 60.358 22.936 31.386 21.729 32.593 21.729 32.594 20.522 33.8 19.314 33.8 18.108 35.008 18.107 35.007 16.9 36.215 31.386 74.844 14.486 38.629 13.279 38.629 12.071 39.836 12.072 39.836 10.864 41.044 9.658 42.25 9.657 42.251 8.45 43.457 7.243 43.458 6.036 44.665 6.035 44.664 4.829 45.872 3.622 47.08 3.621 47.079 2.414 48.286 1.207 48.286v120.72l-1.207 35.007-1.207 35.008-1.207 33.8-2.414 33.801-2.415 33.8-2.414 32.593-3.621 32.594-3.622 32.593-3.621 31.386-9.658 62.772-4.828 30.179-12.072 60.358-6.036 28.972-7.243 28.971-7.242 28.972-7.243 27.765-7.243 27.764-8.45 27.765-8.451 26.557-8.45 26.558-9.657 26.557-9.657 25.35-9.657 25.351-10.865 25.35-10.864 24.143-10.865 24.143-12.071 24.143-12.072 22.936-12.071 22.936-12.072 22.936-13.279 21.729-13.278 21.729-13.279 21.729-14.486 21.729-14.486 20.521-28.972 41.044-15.693 20.521-15.693 19.315-15.693 19.314-16.9 19.315-16.9 19.314-16.9 18.108-16.9 18.107-18.108 18.107-36.215 33.801-19.314 16.9-19.315 16.9-19.314 15.693-19.315 15.693-20.521 15.693-20.522 15.693-41.043 28.972-43.458 28.972-21.729 13.278-45.872 26.558-45.872 24.143-24.143 12.072-24.143 12.071-24.143 10.865-25.35 10.864-76.051 28.972-79.672 25.35-83.294 21.729-28.972 6.036-57.944 12.071-28.971 4.829-60.358 9.657-30.179 3.622-62.772 7.243-62.772 4.828-32.594 2.414-32.593 1.208-32.593 1.207-67.601 2.414h-102.61l-67.601-2.414-32.593-1.207-97.78-7.243-31.386-2.415-31.386-3.621-31.386-3.622-30.179-3.621-60.358-9.657-28.972-4.829-28.971-4.829-28.972-6.035-27.765-6.036-27.764-6.036-27.765-7.243-53.115-14.486-26.557-7.243-26.558-8.45-50.7-16.9-25.351-9.657-24.143-9.657-48.286-19.315-22.936-10.864-45.872-21.729-22.936-12.072-21.729-12.071-21.729-12.072-21.728-13.279-21.729-13.278-20.522-13.279-20.522-14.486-41.043-28.972-20.522-15.693-38.629-31.386-38.629-33.8-18.107-16.9-18.107-18.108-18.108-18.107-18.107-18.107-18.107-19.315-33.801-38.629-16.9-20.522-16.9-20.521-15.693-20.522-31.386-43.458-15.693-21.728-15.693-22.936-28.972-45.872-14.486-24.144-14.486-24.143-13.279-24.143-13.278-25.35-12.072-25.35-12.071-25.351-12.072-26.557-10.864-26.558-10.865-26.557-10.864-27.764-9.657-27.765-9.658-27.765-9.657-27.764-16.9-57.944-7.243-28.972-7.243-30.178-7.243-30.179-6.036-30.179-6.036-31.386-6.035-31.386-4.829-31.387-4.829-32.593-7.242-65.186-3.622-33.801-2.414-33.8-2.415-33.8-2.414-33.801-1.207-35.007-1.207-35.008-1.207-35.007v-36.215zm1017.6 4.828v61.565l1.207 30.179 2.414 57.944 2.414 27.765 2.415 27.764 2.414 26.558 3.621 26.557 3.622 25.35 3.621 25.351 3.622 25.35 4.828 24.143 4.829 24.143 4.829 22.936 6.036 22.936 6.035 21.729 6.036 21.729 7.243 20.521 14.486 41.044 7.243 19.314 8.45 19.315 16.9 36.214 9.657 16.901 9.658 16.9 9.657 15.693 10.864 15.693 10.865 14.486 10.864 14.486 10.865 14.486 24.143 26.557 24.143 24.143 13.279 12.072 13.278 10.864 13.279 10.864 13.279 10.865 13.278 9.657 14.486 9.657 14.486 9.658 28.972 16.9 15.693 8.45 31.386 14.486 15.693 6.036 15.693 6.035 16.9 6.036 33.801 9.657 16.9 4.829 16.9 3.621 18.107 3.622 18.108 3.621 18.107 2.415 18.108 2.414 19.314 2.414 57.944 3.622h39.836l20.521-1.207 19.315-1.207 19.314-1.208 38.629-4.828 18.108-2.415 18.107-3.621 18.107-3.622 18.108-3.621 16.9-4.829 16.9-4.828 16.9-4.829 16.901-6.036 16.9-6.035 15.693-6.036 47.079-21.729 43.458-25.35 14.485-9.658 26.558-19.314 13.279-10.865 13.278-10.864 12.072-10.864 12.071-12.072 12.072-12.071 12.072-13.279 21.728-26.558 10.865-14.485 10.864-14.486 9.658-15.693 9.657-16.901 9.657-16.9 16.9-36.214 8.45-19.315 8.45-19.314 14.486-41.044 7.243-21.729 6.036-21.728 6.036-22.936 6.036-24.144 6.035-24.143 9.658-50.7 4.828-26.558 3.622-26.557 3.621-27.765 3.622-27.764 4.828-57.944 2.415-30.179 2.414-31.386 1.207-31.386 2.414-65.186v-125.54l-1.207-27.764-1.207-27.765-1.207-26.557-2.414-26.558-2.415-25.35-2.414-25.35-3.622-25.351-7.242-48.286-9.658-45.872-4.828-22.936-4.829-21.729-6.036-21.728-6.036-20.522-6.035-20.522-7.243-20.521-7.243-19.315-7.243-19.314-8.45-18.108-8.45-18.107-8.45-18.108-8.451-16.9-9.657-16.9-19.314-31.386-10.865-15.693-10.864-14.486-10.865-14.486-12.071-13.279-12.072-13.278-12.071-13.279-24.143-24.143-13.279-12.072-26.558-21.728-13.278-9.658-28.972-19.314-28.972-16.9-14.486-8.451-15.693-7.242-31.386-14.486-31.386-12.072-16.9-6.036-16.9-4.828-33.801-9.658-18.107-3.621-18.107-3.622-18.108-3.621-18.107-2.414-18.107-2.415-19.315-2.414-57.943-3.621h-39.837l-19.314 1.207-36.215 2.414-18.107 2.414-18.107 2.415-18.108 2.414-16.9 3.621-16.9 3.622-16.9 3.621-33.801 9.658-15.693 4.828-47.079 18.108-15.693 7.243-14.486 7.243-43.457 25.35-28.972 19.314-13.279 9.658-13.279 10.864-26.557 21.729-13.279 12.071-12.071 12.072-12.072 12.072-12.072 13.278-12.071 13.279-10.865 13.279-10.864 14.486-10.864 14.485-10.865 15.693-9.657 15.694-9.657 16.9-9.658 16.9-8.45 18.107-8.45 18.108-8.45 19.314-7.243 19.315-7.243 20.521-7.243 20.522-7.243 21.729-6.035 21.729-6.036 21.728-6.036 22.936-4.829 22.936-4.828 24.143-4.829 24.144-3.621 25.35-3.622 25.35-3.621 26.558-3.622 26.557-2.414 27.765-2.414 27.764-2.415 27.765-1.207 28.972-1.207 28.971-1.207 30.179v61.565z" fill="#b20000"/></g></g></svg>